PathFileType	3	(X/Y/Z)	D:\minhoCalibration\240510\subject5_KPNP\preferred\preferred19.trc
DataRate	CameraRate	NumFrames	NumMarkers	Units	OrigDataRate	OrigDataStartFrame	OrigNumFrames
200.0	200.0	21	10	mm	200.0	170	121	
Frame#	Time	Left_Ankle_Outer1			Left_Ankle_Inner1			Left_Knee_Outer1			Left_Knee_Inner1			Left_Wrist1			Right_Wrist1			Right_Knee_Inner1			Right_Knee_Outer1			Right_Ankle_Inner1			Right_Ankle_Outer1			
		X1	Y1	Z1	X2	Y2	Z2	X3	Y3	Z3	X4	Y4	Z4	X5	Y5	Z5	X6	Y6	Z6	X7	Y7	Z7	X8	Y8	Z8	X9	Y9	Z9	X10	Y10	Z10	
170	0.84	-109.79983	79.60759	-727.88812	-158.83246	93.597153	-725.86438	6.2662401	527.28027	-604.29718	-87.007675	519.42896	-590.99585	82.104477	998.2829	-774.84827	-246.20938	1100.613	-761.75519	-414.17065	700.81726	-425.17291	-474.99097	769.06982	-457.25311	-336.3497	485.44702	-828.01031	-387.48199	563.04663	-858.35406
171	0.845	-110.90793	80.018059	-728.16199	-159.7982	94.095421	-724.89978	8.9254322	527.35297	-605.60736	-84.252205	519.38861	-590.13287	81.428879	997.3714	-778.78741	-244.60292	1104.4811	-753.42291	-409.78177	714.12335	-406.22745	-470.17233	784.11487	-436.20587	-348.50253	499.29282	-812.10413	-398.95255	578.10022	-840.91125
172	0.85	-112.39915	80.614944	-728.24353	-161.42647	94.853813	-724.10144	11.517719	527.43732	-607.03845	-81.522072	519.58203	-588.88556	79.946877	996.12915	-782.729	-233.27312	1105.824	-737.18402	-404.52859	727.70038	-387.59201	-463.74606	798.89258	-416.42203	-360.87277	513.48724	-796.51483	-410.84528	593.10217	-823.28027
173	0.855	-114.79485	81.24633	-728.03003	-163.5282	95.759735	-723.21625	13.030729	526.96558	-608.24353	-78.977943	519.14252	-587.87079	78.017014	994.69995	-786.71161	-229.04202	1113.8604	-729.92004	-398.38498	741.00836	-369.59262	-456.63998	814.1554	-396.14407	-373.55896	528.04492	-780.86499	-422.49695	608.77142	-805.62476
174	0.86	-117.29555	82.078194	-728.27753	-166.18532	96.947617	-722.2511	15.136138	526.82434	-609.45032	-76.638222	519.3421	-585.41022	76.408989	993.5473	-790.8808	-226.17598	1117.9076	-718.33105	-391.04849	753.95978	-352.07693	-448.05463	829.23401	-376.73883	-386.23444	542.75214	-765.14435	-434.43002	624.76373	-787.07007
175	0.865	-120.71248	83.10025	-727.72675	-168.45949	98.561905	-721.7616	16.173676	526.38123	-609.98846	-74.326012	519.17334	-583.11694	74.253143	992.38635	-794.68872	-224.82317	1120.7776	-710.79498	-382.3519	767.14331	-334.68027	-438.21811	843.65387	-358.27866	-399.83865	557.66461	-748.79114	-446.15454	641.07587	-769.27063
176	0.87	-124.15549	84.236748	-727.45917	-172.51056	99.161995	-719.12604	17.65271	526.11322	-610.52155	-72.459015	519.01581	-580.55914	72.177917	991.20685	-798.12097	-221.06596	1125.9606	-704.66626	-372.72144	779.61316	-318.27426	-427.50162	858.53668	-339.78708	-413.50278	572.78998	-732.26398	-457.94922	657.85938	-750.60211
177	0.875	-128.16486	85.379005	-727.26923	-175.97696	101.13643	-717.83978	18.699295	525.86548	-610.66974	-70.397545	519.15948	-577.01471	66.287933	987.87683	-803.18024	-218.48923	1130.5042	-697.78296	-363.245	792.24548	-302.20349	-414.96207	872.76361	-322.98703	-427.43283	588.16809	-715.26349	-469.85046	674.84479	-731.75165
178	0.88	-132.71664	86.977112	-725.98981	-180.20413	102.36913	-714.98071	19.711245	525.63116	-610.61328	-68.537979	518.63348	-574.61597	62.657677	986.16577	-807.02582	-215.33408	1134.4208	-691.55664	-352.39386	804.13049	-287.55695	-402.53799	886.73749	-306.05521	-441.52274	603.84503	-697.70435	-481.76318	691.95868	-712.25519
179	0.885	-137.01717	88.70813	-725.21594	-184.32571	103.9595	-713.02991	19.969072	525.44812	-609.92468	-66.634117	518.78375	-571.29755	58.54353	984.36005	-810.74506	-212.13002	1138.1322	-685.68799	-341.04047	815.75275	-274.36917	-388.89786	899.96802	-290.28494	-455.87463	619.80133	-679.39624	-493.70102	709.21741	-691.98004
180	0.89	-141.30382	90.415794	-724.37421	-188.21732	105.98647	-710.37384	20.87393	525.38477	-609.63593	-65.108322	518.66803	-567.5733	54.432644	982.52972	-814.30554	-209.19159	1141.5134	-680.32507	-329.04303	827.32031	-260.72937	-374.25879	913.54602	-275.2554	-470.46036	636.04767	-660.09998	-505.59091	726.73914	-671.02734
181	0.895	-145.27629	92.276695	-723.40314	-192.57664	107.40105	-707.37274	20.829683	525.28845	-608.67499	-63.281261	518.99786	-564.21234	49.722431	980.53955	-817.85541	-205.87901	1145.0396	-674.99432	-316.84735	837.74182	-248.97482	-358.12146	925.78748	-261.72208	-485.15048	652.55328	-639.84711	-517.30035	744.23004	-649.02161
182	0.9	-150.36371	93.268066	-721.03821	-196.63106	108.999	-704.45477	20.973089	525.34302	-607.75769	-61.541157	519.19489	-561.33453	44.969433	978.22534	-822.06622	-202.74434	1148.0366	-670.37799	-304.28757	848.20837	-237.49187	-342.01123	938.22504	-248.99731	-499.94601	669.24072	-618.30188	-528.98505	762.17279	-626.02417
183	0.905	-154.67387	94.613708	-719.29138	-200.37537	110.30528	-701.57227	20.917089	525.30878	-606.82928	-59.96603	519.23975	-558.42853	40.057465	975.92792	-825.08008	-199.71362	1151.142	-665.88654	-291.32892	858.1933	-226.98917	-325.57278	949.58649	-237.5175	-514.67908	685.91223	-595.33319	-540.33624	780.05017	-601.98065
184	0.91	-158.45647	95.898575	-717.75958	-203.9062	111.41819	-698.91931	20.842567	525.37128	-606.12561	-58.59005	519.32275	-555.66785	34.305809	973.32593	-826.51752	-196.28017	1154.0305	-662.01154	-278.33609	867.78503	-217.38362	-308.47525	959.91321	-227.67761	-529.06573	702.01495	-572.06213	-551.43103	797.83185	-576.5304
185	0.915	-162.52216	96.523117	-715.57953	-207.30125	112.57349	-695.82654	20.291767	525.14056	-605.45184	-57.410557	519.42249	-553.25616	30.025061	971.42645	-830.11993	-193.25719	1156.8029	-658.20776	-265.22107	877.31293	-208.24272	-291.40814	970.45404	-218.36432	-543.75635	719.13507	-544.43774	-562.23993	815.45581	-549.9126
186	0.92	-166.28981	97.009674	-713.8598	-210.9417	113.02304	-692.7196	19.721792	525.17163	-605.31274	-56.540428	519.3374	-551.2171	24.588509	970.01361	-832.24384	-189.32544	1159.1703	-654.98169	-252.56636	885.49866	-200.73494	-274.86591	979.88818	-210.46619	-558.14771	735.6441	-515.87103	-572.58032	832.90356	-521.96295
187	0.925	-170.15642	97.208908	-711.9126	-214.00464	113.3091	-690.40979	18.980288	524.93512	-605.46033	-55.804623	518.93103	-549.68811	18.806923	967.52856	-833.32703	-186.2894	1161.3414	-651.61334	-240.11978	893.63867	-193.45174	-258.70288	988.64087	-203.96954	-572.51178	752.70447	-486.00751	-582.40717	850.13	-492.62247
188	0.93	-173.98195	97.125298	-710.05334	-216.92479	113.70663	-688.0473	18.121748	524.80756	-606.12567	-55.518299	518.45404	-548.5744	13.899644	965.69342	-835.54608	-183.0632	1163.2802	-648.67426	-228.81133	901.81793	-187.44551	-243.07233	997.16394	-198.13374	-585.43127	769.06543	-453.06604	-591.68781	867.05511	-461.93387
189	0.935	-177.39035	96.921478	-708.62451	-220.59274	113.0353	-685.51178	16.732786	524.30865	-607.07434	-55.616779	517.86578	-547.85883	8.9127207	963.67621	-837.06317	-180.02351	1165.5809	-645.36768	-217.655	909.51349	-181.73878	-228.44463	1004.7305	-193.94823	-597.47388	785.64465	-418.68506	-600.30615	883.71851	-429.69525
190	0.94	-180.53754	96.393547	-707.66589	-223.54997	112.48264	-683.65747	14.981332	523.09546	-607.96649	-56.038139	516.91046	-547.62549	3.970757	961.70709	-838.42639	-177.28949	1167.1112	-642.44958	-207.55536	917.15826	-176.96324	-215.72112	1012.5319	-189.82256	-608.46497	802.38257	-382.97498	-608.06726	900.05127	-396.05011
